<svg width="589" height="36" viewBox="0 0 589 36" fill="none" xmlns="http://www.w3.org/2000/svg">
<path d="M12.5554 14.6645C17.1654 14.6645 21.995 14.5149 26.605 14.3652C28.5807 14.3652 30.3369 14.2156 32.3126 14.2156C40.6546 13.9163 48.9965 13.617 57.3384 13.3178C67.4365 13.0185 77.3151 12.5696 87.4132 12.2703C101.682 11.6718 115.951 11.2228 130.221 10.6243C133.513 10.4746 136.806 10.4746 140.099 10.325C148.441 10.0257 156.783 9.72646 165.125 9.57682C173.467 9.27754 181.809 8.97827 190.151 8.82863C193.444 8.67899 196.736 8.52936 200.029 8.52936C213.201 8.23008 226.592 7.9308 239.763 7.63152C247.886 7.48189 256.008 7.33226 264.35 7.03298C267.643 7.03298 270.716 6.88334 274.009 6.88334C286.741 6.7337 299.693 6.58407 312.426 6.43443C325.158 6.28479 337.671 6.13515 350.403 5.98551C353.696 5.98551 356.989 5.98551 360.502 5.98551C368.844 5.98551 376.966 5.98551 385.308 5.98551C398.26 5.98551 410.992 5.98551 423.944 5.83588C428.115 5.83588 432.286 5.83588 436.457 5.83588C445.238 5.83588 454.019 5.83588 462.8 5.83588C463.459 5.83588 464.337 5.83588 464.995 5.83588C445.238 5.98551 425.261 6.13515 405.504 6.43443C397.162 6.58407 389.04 6.58406 380.698 6.7337C377.185 6.7337 373.454 6.7337 369.941 6.88334C357.867 7.03297 346.013 7.33225 333.939 7.48189C320.109 7.78116 306.279 7.9308 292.449 8.23008C290.034 8.23008 287.839 8.37971 285.424 8.37971C277.96 8.67899 270.716 8.82863 263.252 9.1279C248.325 9.57682 233.397 10.0257 218.469 10.4746C216.274 10.4746 214.079 10.6243 211.884 10.7739C204.639 11.0732 197.175 11.5221 189.931 11.8214C176.76 12.4199 163.808 13.0185 150.636 13.617C147.124 13.7667 143.392 14.066 139.88 14.2156C131.538 14.6645 123.196 15.1134 114.854 15.712C104.317 16.3105 93.5599 16.9091 83.0228 17.5076C68.3146 18.4055 53.387 19.3033 38.6788 20.2011C35.1665 20.3507 31.6541 20.65 27.9221 20.7997C21.5559 21.2486 15.1897 21.6975 8.82352 22.1464C8.16495 22.1464 7.50638 22.4457 7.50638 23.0442C7.50638 23.4931 8.16495 23.9421 8.82352 23.9421C11.2383 23.9421 13.4335 24.0917 15.8483 24.0917C15.6288 24.5406 15.4093 24.9895 15.4093 25.4384C15.4093 27.0844 17.385 28.5808 20.0193 28.5808C38.2398 27.8326 56.2408 26.9348 74.4613 26.3362C90.2671 25.8873 106.073 25.2888 121.879 24.8399C139.221 24.2413 156.783 23.6428 174.125 23.1939C179.613 23.0442 185.102 22.8946 190.59 22.5953C192.126 22.5953 193.663 22.4457 195.419 22.4457C223.518 21.9968 251.617 21.3982 279.717 20.9493C294.644 20.65 309.791 20.3507 324.719 20.2011C330.207 20.0515 335.476 20.0515 340.964 19.9018C369.722 19.6026 398.479 19.3033 427.237 19.004C439.53 18.8544 451.824 18.7047 464.117 18.5551C474.654 18.4054 485.191 18.4054 495.729 18.1062C504.51 17.9565 513.071 17.6573 521.852 17.5076C526.242 17.358 530.633 17.358 534.804 17.2083C544.682 16.7594 554.561 16.3105 564.44 15.8616C563.781 16.4602 563.781 17.358 564.001 17.9565C564.22 18.7047 564.879 19.3033 565.976 19.6025C566.855 19.9018 568.172 20.2011 569.05 19.9018C571.245 19.3033 573.44 18.7047 575.416 18.1062C575.416 18.1062 575.416 18.1062 575.196 18.1062C575.416 18.1062 575.416 17.9565 575.635 17.9565C575.855 17.9565 576.075 17.8069 576.075 17.8069H575.855C576.953 17.5076 578.05 17.2084 579.367 16.7594C580.465 16.4602 581.782 16.0112 582.88 15.712C584.197 15.2631 585.295 14.8141 586.612 14.3652C587.929 13.9163 588.807 12.7192 588.807 11.6718C588.807 11.0732 588.587 10.6243 588.148 10.0257C587.709 9.42719 586.612 8.679 585.514 8.52936C584.417 8.37972 583.319 8.23008 582.221 8.23008C582.002 8.23008 581.782 8.23008 581.563 8.23008C580.904 8.23008 580.026 8.23008 579.367 8.37971C577.611 8.52935 576.075 8.679 574.318 8.679C573.001 8.679 571.684 8.82863 570.147 8.82863C566.415 8.97827 562.903 9.12791 559.171 9.42719C558.293 9.42719 557.195 9.57682 556.317 9.57682C556.756 9.27754 556.976 8.97827 556.976 8.679C557.195 8.37972 557.195 8.08045 557.195 7.78117C557.195 7.63153 557.195 7.33226 557.415 7.18262C557.415 6.88334 557.415 6.58407 557.195 6.43443C557.195 6.43443 557.415 6.43443 557.415 6.28479C558.074 5.98552 558.732 5.68624 559.171 5.08769C559.61 4.63877 559.83 4.04022 559.83 3.44167C559.83 2.84312 559.61 2.39421 559.171 1.79566C558.952 1.64602 558.732 1.34674 558.513 1.19711C557.854 0.748193 557.195 0.598556 556.537 0.448918C555.22 0.149642 553.683 0 552.146 0C550.829 0 549.732 0 548.414 0C546.658 0 544.902 0 543.146 0C540.731 0 538.097 0 535.682 0C529.096 0 522.511 0 515.925 0C509.778 0 503.412 0 497.265 0C491.558 0 486.07 0 480.362 0C457.751 0 435.359 0.149645 412.748 0.299282C395.845 0.44892 378.942 0.598553 362.038 0.598553C354.574 0.598553 346.891 0.748187 339.427 0.897824C322.524 1.1971 305.62 1.34674 288.717 1.64601C283.888 1.64601 279.058 1.79566 274.228 1.79566C271.375 1.79566 268.74 1.9453 265.887 1.9453C249.203 2.39421 232.519 2.84312 215.835 3.29204C210.786 3.44168 205.737 3.59131 200.468 3.74094C197.614 3.74094 194.761 3.89059 191.907 4.04023C175.223 4.63878 158.759 5.23732 142.075 5.83588C133.513 6.13515 124.952 6.43442 116.39 6.88334C101.682 7.48189 86.9742 8.08044 72.4856 8.82863C59.7532 9.42718 47.0208 9.8761 34.2883 10.325C32.3126 10.4746 30.3369 10.4746 28.1417 10.6243C24.8488 10.7739 21.5559 10.7739 18.2631 10.9236C15.4093 11.0732 12.5554 11.0732 9.4821 11.0732C9.26257 10.6243 8.38447 10.1754 7.7259 10.1754C5.75018 10.325 3.99399 10.4746 2.01827 10.6243C1.14017 10.6243 0.262072 10.9236 0.0425471 11.6718C-0.176977 12.4199 0.481595 13.1681 1.35969 13.3178C2.23779 13.4674 2.89636 13.617 3.77446 13.7667C4.65256 13.9163 5.31113 13.9163 6.18923 13.9163C8.38447 14.5149 10.3602 14.5149 12.5554 14.6645ZM526.242 9.72646C528.877 9.72646 531.731 9.72646 534.365 9.72646C534.584 10.1754 535.023 10.4747 535.463 10.7739C534.365 10.7739 533.267 10.9236 532.389 10.9236C530.413 10.9236 528.438 11.0732 526.462 11.0732C517.681 11.2228 509.12 11.5221 500.339 11.6718C496.387 11.8214 492.436 11.971 488.484 11.971C482.338 11.971 475.971 12.1207 469.825 12.1207C455.556 12.2703 441.506 12.4199 427.237 12.5696C399.577 12.8689 372.136 13.1681 344.476 13.4674C324.719 13.617 304.962 14.066 285.205 14.5149C255.569 15.1134 225.714 15.5623 196.078 16.1609C190.151 16.3105 184.224 16.4602 178.296 16.7594C161.393 17.358 144.49 17.8069 127.586 18.4055C111.122 19.004 94.438 19.4529 77.9737 20.0515C76.437 20.0515 74.9004 20.2011 73.3637 20.2011C77.7542 19.9018 82.3642 19.7522 86.7547 19.4529C102.341 18.7047 117.927 17.8069 133.513 17.0587C139.001 16.7594 144.49 16.4602 149.758 16.1609C152.612 16.0112 155.466 15.8616 158.1 15.8616C174.345 15.2631 190.59 14.5149 206.835 13.9163C209.908 13.7667 213.201 13.617 216.274 13.4674C220.884 13.3178 225.494 13.1681 229.885 13.1681C246.568 12.7192 263.252 12.2703 279.936 11.8214C283.668 11.6717 287.4 11.6718 290.912 11.5221C291.79 11.5221 292.888 11.5221 293.766 11.5221C296.4 11.5221 299.035 11.5221 301.45 11.3725C318.133 11.0732 335.037 10.9236 351.721 10.6243C359.404 10.4746 367.087 10.325 374.771 10.325C399.577 10.1754 424.603 10.0257 449.409 9.87609C475.532 9.87609 500.997 9.87609 526.242 9.72646Z" fill="#012169"/>
<path d="M45.7029 35.1649C46.4303 35.1649 47.02 34.7629 47.02 34.2671C47.02 33.7712 46.4303 33.3693 45.7029 33.3693C44.9754 33.3693 44.3857 33.7712 44.3857 34.2671C44.3857 34.7629 44.9754 35.1649 45.7029 35.1649Z" fill="#26A4FF"/>
</svg>
